<svg xmlns="http://www.w3.org/2000/svg" xmlns:xlink="http://www.w3.org/1999/xlink" width="750" zoomAndPan="magnify" viewBox="0 0 562.5 562.499982" height="750" preserveAspectRatio="xMidYMid meet" version="1.0"><defs><clipPath id="805dd4123a"><path d="M 26.449219 22.898438 L 535.246094 22.898438 L 535.246094 535 L 26.449219 535 Z M 26.449219 22.898438 " clip-rule="nonzero"/></clipPath></defs><g clip-path="url(#805dd4123a)"><path fill="#d24776" d="M 309.863281 292.070312 L 288.390625 292.070312 C 285.457031 292.070312 283.066406 294.460938 283.066406 297.394531 L 283.066406 389.863281 C 283.066406 392.796875 285.457031 395.1875 288.390625 395.1875 L 309.863281 395.1875 C 312.796875 395.1875 315.1875 392.796875 315.1875 389.863281 L 315.1875 297.394531 C 315.1875 294.460938 312.796875 292.070312 309.863281 292.070312 Z M 460.480469 384.074219 C 501.941406 384.074219 535.550781 417.683594 535.550781 459.144531 C 535.550781 500.605469 501.941406 534.21875 460.480469 534.21875 C 419.019531 534.21875 385.410156 500.605469 385.410156 459.144531 C 385.410156 417.683594 419.019531 384.074219 460.480469 384.074219 Z M 490.4375 433.046875 C 486.179688 422.90625 478.070312 417.046875 469.15625 414.789062 L 469 414.75 L 469 411.640625 C 469 406.9375 465.183594 403.121094 460.480469 403.121094 C 455.773438 403.121094 451.960938 406.9375 451.960938 411.640625 L 451.960938 414.867188 C 439.300781 418.121094 429.75 428.230469 430.414062 441.890625 C 431.199219 458.113281 444.988281 464.933594 459.183594 467.265625 C 465.519531 468.304688 475.878906 470.480469 476.070312 478.644531 C 476.226562 485.285156 466.324219 487.425781 461.261719 487.546875 C 454.289062 487.714844 446.492188 484.695312 444.648438 477.308594 C 443.527344 472.75 438.925781 469.964844 434.367188 471.085938 C 429.808594 472.207031 427.019531 476.8125 428.140625 481.371094 C 431.082031 493.164062 440.398438 500.941406 451.957031 503.5625 L 451.957031 506.648438 C 451.957031 511.355469 455.773438 515.171875 460.480469 515.171875 C 465.183594 515.171875 469 511.355469 469 506.648438 L 469 503.730469 C 481.933594 501.15625 493.386719 492.609375 493.042969 478.242188 C 492.621094 460.269531 477.550781 453.054688 461.914062 450.488281 C 456.699219 449.632812 447.707031 447.707031 447.386719 441.089844 C 447.109375 435.390625 452.058594 432.109375 457.074219 431.097656 C 464.300781 429.640625 471.75 432.550781 474.726562 439.636719 C 476.546875 443.972656 481.539062 446.015625 485.875 444.195312 C 490.214844 442.375 492.253906 437.382812 490.4375 433.046875 Z M 369.738281 96.3125 C 365.382812 94.546875 363.28125 89.582031 365.046875 85.226562 C 366.808594 80.871094 371.773438 78.769531 376.128906 80.535156 C 419.351562 98.179688 456.105469 128.425781 481.832031 166.714844 C 520.65625 224.5 531.429688 296.613281 511.800781 362.964844 C 510.476562 367.464844 505.753906 370.042969 501.25 368.722656 C 496.746094 367.398438 494.167969 362.671875 495.492188 358.171875 C 513.664062 296.742188 503.636719 229.621094 467.71875 176.167969 C 443.890625 140.699219 409.820312 112.671875 369.738281 96.3125 Z M 360.035156 500.734375 C 364.464844 499.171875 369.324219 501.496094 370.886719 505.925781 C 372.449219 510.355469 370.125 515.214844 365.695312 516.777344 C 302.683594 539.015625 232.429688 533.132812 173.921875 500.277344 C 138.96875 480.652344 109.578125 452.269531 88.71875 418.105469 C 86.273438 414.097656 87.539062 408.867188 91.546875 406.421875 C 95.554688 403.976562 100.785156 405.242188 103.230469 409.25 C 122.5625 440.914062 149.816406 467.226562 182.242188 485.433594 C 236.382812 515.835938 301.695312 521.324219 360.035156 500.734375 Z M 93.054688 202.777344 C 91.011719 207.003906 85.933594 208.777344 81.703125 206.738281 C 77.476562 204.695312 75.703125 199.613281 77.742188 195.386719 C 85.972656 178.332031 96.195312 162.453125 108.105469 148.050781 C 120.070312 133.582031 133.796875 120.550781 148.960938 109.277344 C 152.730469 106.484375 158.050781 107.273438 160.84375 111.042969 C 163.636719 114.8125 162.847656 120.132812 159.082031 122.925781 C 145.09375 133.320312 132.375 145.410156 121.21875 158.902344 C 110.144531 172.292969 100.660156 187.011719 93.054688 202.777344 Z M 102.699219 228.148438 C 144.8125 228.148438 178.953125 262.289062 178.953125 304.402344 C 178.953125 346.515625 144.8125 380.65625 102.699219 380.65625 C 60.585938 380.65625 26.449219 346.515625 26.449219 304.402344 C 26.449219 262.289062 60.585938 228.148438 102.699219 228.148438 Z M 139.605469 255.449219 L 134.953125 260.101562 C 131.625 263.429688 131.625 268.824219 134.953125 272.148438 C 138.277344 275.476562 143.671875 275.476562 147 272.148438 L 151.652344 267.496094 C 154.980469 264.167969 154.980469 258.773438 151.652344 255.449219 C 148.324219 252.121094 142.933594 252.121094 139.605469 255.449219 Z M 94.179688 275.554688 L 94.179688 304.402344 C 94.179688 307.773438 96.136719 310.683594 98.976562 312.066406 L 117.699219 322.878906 C 121.761719 325.230469 126.964844 323.847656 129.316406 319.785156 C 131.667969 315.722656 130.285156 310.519531 126.222656 308.167969 L 111.21875 299.507812 L 111.21875 275.554688 C 111.21875 270.847656 107.40625 267.035156 102.699219 267.035156 C 97.992188 267.03125 94.179688 270.847656 94.179688 275.554688 Z M 163.410156 295.882812 L 156.832031 295.882812 C 152.125 295.882812 148.308594 299.695312 148.308594 304.402344 C 148.308594 309.109375 152.125 312.921875 156.832031 312.921875 L 163.410156 312.921875 C 168.117188 312.921875 171.933594 309.109375 171.933594 304.402344 C 171.929688 299.695312 168.117188 295.882812 163.410156 295.882812 Z M 151.652344 341.308594 L 147 336.652344 C 143.671875 333.328125 138.277344 333.328125 134.953125 336.652344 C 131.625 339.980469 131.625 345.375 134.953125 348.703125 L 139.605469 353.355469 C 142.933594 356.683594 148.328125 356.683594 151.652344 353.355469 C 154.980469 350.027344 154.980469 344.632812 151.652344 341.308594 Z M 111.21875 365.113281 L 111.21875 358.53125 C 111.21875 353.828125 107.40625 350.011719 102.699219 350.011719 C 97.992188 350.011719 94.179688 353.828125 94.179688 358.53125 L 94.179688 365.113281 C 94.179688 369.820312 97.992188 373.632812 102.699219 373.632812 C 107.40625 373.632812 111.21875 369.820312 111.21875 365.113281 Z M 65.792969 353.355469 L 70.449219 348.703125 C 73.773438 345.375 73.773438 339.980469 70.449219 336.65625 C 67.121094 333.328125 61.726562 333.328125 58.398438 336.65625 L 53.746094 341.308594 C 50.417969 344.636719 50.417969 350.03125 53.746094 353.355469 C 57.074219 356.683594 62.46875 356.683594 65.792969 353.355469 Z M 41.988281 312.921875 L 48.570312 312.921875 C 53.273438 312.921875 57.089844 309.109375 57.089844 304.402344 C 57.089844 299.695312 53.273438 295.882812 48.570312 295.882812 L 41.988281 295.882812 C 37.28125 295.882812 33.46875 299.695312 33.46875 304.402344 C 33.46875 309.109375 37.28125 312.921875 41.988281 312.921875 Z M 53.746094 267.496094 L 58.398438 272.152344 C 61.726562 275.480469 67.121094 275.480469 70.449219 272.152344 C 73.773438 268.824219 73.773438 263.429688 70.449219 260.101562 L 65.792969 255.449219 C 62.46875 252.121094 57.074219 252.121094 53.746094 255.449219 C 50.417969 258.777344 50.417969 264.171875 53.746094 267.496094 Z M 94.179688 243.691406 L 94.179688 250.273438 C 94.179688 254.976562 97.992188 258.792969 102.699219 258.792969 C 107.40625 258.792969 111.21875 254.976562 111.21875 250.273438 L 111.21875 243.691406 C 111.21875 238.984375 107.40625 235.171875 102.699219 235.171875 C 97.992188 235.171875 94.179688 238.984375 94.179688 243.691406 Z M 280.871094 35.574219 C 287.578125 37.167969 293.984375 39.828125 299.855469 43.441406 L 310.183594 38.855469 C 311.417969 38.308594 312.789062 38.5625 313.742188 39.515625 L 325.179688 50.953125 C 326.132812 51.90625 326.386719 53.277344 325.839844 54.507812 L 321.253906 64.835938 C 324.867188 70.707031 327.527344 77.117188 329.125 83.824219 L 339.660156 87.878906 C 340.917969 88.367188 341.707031 89.515625 341.707031 90.863281 L 341.707031 107.035156 C 341.707031 108.382812 340.917969 109.53125 339.660156 110.015625 L 329.121094 114.074219 C 327.523438 120.78125 324.867188 127.1875 321.25 133.058594 L 325.839844 143.390625 C 326.386719 144.621094 326.132812 145.992188 325.179688 146.945312 L 313.742188 158.382812 C 312.789062 159.335938 311.417969 159.589844 310.1875 159.042969 L 299.859375 154.457031 C 293.988281 158.070312 287.578125 160.730469 280.871094 162.328125 L 276.8125 172.867188 C 276.328125 174.125 275.179688 174.914062 273.832031 174.914062 L 257.65625 174.914062 C 256.308594 174.914062 255.160156 174.125 254.675781 172.867188 L 250.617188 162.324219 C 243.914062 160.726562 237.507812 158.070312 231.636719 154.453125 L 221.304688 159.042969 C 220.070312 159.589844 218.699219 159.335938 217.746094 158.382812 L 206.3125 146.945312 C 205.359375 145.992188 205.101562 144.621094 205.652344 143.390625 L 210.238281 133.0625 C 206.621094 127.191406 203.960938 120.78125 202.363281 114.074219 L 191.828125 110.019531 C 190.570312 109.535156 189.78125 108.382812 189.78125 107.039062 L 189.78125 90.863281 C 189.78125 89.515625 190.570312 88.367188 191.828125 87.882812 L 202.367188 83.824219 C 203.964844 77.117188 206.621094 70.710938 210.238281 64.839844 L 205.648438 54.507812 C 205.101562 53.277344 205.355469 51.90625 206.308594 50.953125 L 217.746094 39.515625 C 218.699219 38.5625 220.070312 38.308594 221.304688 38.855469 L 231.632812 43.441406 C 237.503906 39.828125 243.910156 37.167969 250.617188 35.574219 L 254.675781 25.03125 C 255.160156 23.773438 256.308594 22.984375 257.65625 22.984375 L 273.832031 22.984375 C 275.179688 22.984375 276.328125 23.773438 276.8125 25.03125 Z M 265.742188 63.089844 C 245.9375 63.089844 229.886719 79.144531 229.886719 98.949219 C 229.886719 118.753906 245.9375 134.808594 265.742188 134.808594 C 285.550781 134.808594 301.601562 118.757812 301.601562 98.949219 C 301.601562 79.144531 285.550781 63.089844 265.742188 63.089844 Z M 237.675781 290.835938 C 233.394531 292.765625 228.355469 290.855469 226.425781 286.574219 C 224.496094 282.292969 226.402344 277.253906 230.6875 275.324219 C 250.308594 266.492188 269.957031 256.613281 289.4375 245.554688 C 302.207031 238.304688 314.9375 230.53125 327.582031 222.195312 L 326.277344 222.105469 C 321.589844 221.792969 318.042969 217.738281 318.355469 213.050781 C 318.667969 208.363281 322.71875 204.816406 327.40625 205.128906 L 353.070312 206.90625 C 358.691406 207.277344 362.375 212.988281 360.527344 218.226562 L 353.882812 242.429688 C 352.652344 246.953125 347.988281 249.621094 343.464844 248.386719 C 338.945312 247.15625 336.277344 242.492188 337.507812 237.972656 L 338.167969 235.566406 C 324.804688 244.421875 311.335938 252.660156 297.824219 260.332031 C 277.742188 271.734375 257.636719 281.847656 237.675781 290.835938 Z M 348.035156 267.5625 C 345.101562 267.5625 342.710938 269.957031 342.710938 272.890625 L 342.710938 389.863281 C 342.710938 392.796875 345.101562 395.1875 348.035156 395.1875 L 369.503906 395.1875 C 372.4375 395.1875 374.832031 392.796875 374.832031 389.863281 L 374.832031 272.886719 C 374.832031 269.957031 372.4375 267.5625 369.503906 267.5625 Z M 250.21875 319.308594 C 243.0625 319.308594 235.90625 319.308594 228.746094 319.308594 C 225.816406 319.308594 223.421875 321.699219 223.421875 324.632812 C 223.421875 347.621094 223.421875 366.871094 223.421875 389.863281 C 223.421875 392.792969 225.816406 395.1875 228.746094 395.1875 C 235.90625 395.1875 243.0625 395.1875 250.21875 395.1875 C 253.152344 395.1875 255.546875 392.792969 255.546875 389.863281 C 255.546875 366.871094 255.546875 347.625 255.546875 324.632812 C 255.542969 321.699219 253.152344 319.308594 250.21875 319.308594 Z M 250.21875 319.308594 " fill-opacity="1" fill-rule="evenodd"/></g></svg>